<mxfile host="app.diagrams.net" modified="2021-04-25T07:42:51.758Z" agent="5.0 (Windows NT 10.0; Win64; x64) AppleWebKit/537.36 (KHTML, like Gecko) Chrome/88.0.4324.146 Safari/537.36" etag="eP_lsKrZYOoSg_aQT4je" version="14.6.1" type="github">
  <diagram id="C5RBs43oDa-KdzZeNtuy" name="Page-1">
    <mxGraphModel dx="1422" dy="762" grid="1" gridSize="10" guides="1" tooltips="1" connect="1" arrows="1" fold="1" page="1" pageScale="1" pageWidth="827" pageHeight="1169" math="0" shadow="0">
      <root>
        <mxCell id="WIyWlLk6GJQsqaUBKTNV-0" />
        <mxCell id="WIyWlLk6GJQsqaUBKTNV-1" parent="WIyWlLk6GJQsqaUBKTNV-0" />
        <mxCell id="ic11wrHXvO1-yZu5eCVj-82" style="edgeStyle=orthogonalEdgeStyle;rounded=0;orthogonalLoop=1;jettySize=auto;html=1;exitX=0.75;exitY=0;exitDx=0;exitDy=0;endArrow=none;endFill=0;" edge="1" parent="WIyWlLk6GJQsqaUBKTNV-1" source="ic11wrHXvO1-yZu5eCVj-8" target="ic11wrHXvO1-yZu5eCVj-81">
          <mxGeometry relative="1" as="geometry">
            <mxPoint x="885" y="290" as="targetPoint" />
            <Array as="points">
              <mxPoint x="803" y="320" />
              <mxPoint x="910" y="320" />
            </Array>
          </mxGeometry>
        </mxCell>
        <mxCell id="ic11wrHXvO1-yZu5eCVj-8" value="&lt;b&gt;&lt;font style=&quot;font-size: 14px&quot;&gt;服务层（springcloud）&lt;/font&gt;&lt;/b&gt;" style="rounded=0;whiteSpace=wrap;html=1;align=right;" vertex="1" parent="WIyWlLk6GJQsqaUBKTNV-1">
          <mxGeometry x="120" y="350" width="910" height="110" as="geometry" />
        </mxCell>
        <mxCell id="ic11wrHXvO1-yZu5eCVj-79" style="edgeStyle=orthogonalEdgeStyle;rounded=0;orthogonalLoop=1;jettySize=auto;html=1;exitX=0.5;exitY=1;exitDx=0;exitDy=0;" edge="1" parent="WIyWlLk6GJQsqaUBKTNV-1" source="ic11wrHXvO1-yZu5eCVj-76" target="ic11wrHXvO1-yZu5eCVj-11">
          <mxGeometry relative="1" as="geometry" />
        </mxCell>
        <mxCell id="ic11wrHXvO1-yZu5eCVj-76" value="&lt;br&gt;&lt;br&gt;&lt;br&gt;&amp;nbsp; &amp;nbsp; &amp;nbsp; &amp;nbsp; &amp;nbsp; &amp;nbsp; &amp;nbsp; &amp;nbsp; &amp;nbsp; &amp;nbsp; &amp;nbsp; &amp;nbsp; &amp;nbsp; &amp;nbsp; &amp;nbsp; &amp;nbsp; &amp;nbsp; &amp;nbsp; &amp;nbsp; &amp;nbsp; &amp;nbsp; &amp;nbsp; &amp;nbsp; &amp;nbsp; &amp;nbsp; &amp;nbsp; &amp;nbsp; &amp;nbsp; &amp;nbsp; &amp;nbsp; &amp;nbsp; &amp;nbsp;blade-service" style="rounded=0;whiteSpace=wrap;html=1;align=left;" vertex="1" parent="WIyWlLk6GJQsqaUBKTNV-1">
          <mxGeometry x="130" y="377.5" width="560" height="62.5" as="geometry" />
        </mxCell>
        <mxCell id="ic11wrHXvO1-yZu5eCVj-66" style="edgeStyle=orthogonalEdgeStyle;rounded=0;orthogonalLoop=1;jettySize=auto;html=1;exitX=0.75;exitY=0;exitDx=0;exitDy=0;entryX=0.517;entryY=0.75;entryDx=0;entryDy=0;entryPerimeter=0;" edge="1" parent="WIyWlLk6GJQsqaUBKTNV-1" source="ic11wrHXvO1-yZu5eCVj-8" target="ic11wrHXvO1-yZu5eCVj-25">
          <mxGeometry relative="1" as="geometry" />
        </mxCell>
        <mxCell id="ic11wrHXvO1-yZu5eCVj-3" value="云平台服务(kj-cloud)" style="rounded=1;whiteSpace=wrap;html=1;" vertex="1" parent="WIyWlLk6GJQsqaUBKTNV-1">
          <mxGeometry x="740" y="390" width="120" height="30" as="geometry" />
        </mxCell>
        <mxCell id="ic11wrHXvO1-yZu5eCVj-62" style="edgeStyle=orthogonalEdgeStyle;rounded=0;orthogonalLoop=1;jettySize=auto;html=1;exitX=0.5;exitY=1;exitDx=0;exitDy=0;" edge="1" parent="WIyWlLk6GJQsqaUBKTNV-1" source="ic11wrHXvO1-yZu5eCVj-5">
          <mxGeometry relative="1" as="geometry">
            <mxPoint x="390" y="350" as="targetPoint" />
          </mxGeometry>
        </mxCell>
        <mxCell id="ic11wrHXvO1-yZu5eCVj-5" value="网关（blade-gateway）" style="rounded=0;whiteSpace=wrap;html=1;" vertex="1" parent="WIyWlLk6GJQsqaUBKTNV-1">
          <mxGeometry x="280" y="250" width="220" height="40" as="geometry" />
        </mxCell>
        <mxCell id="ic11wrHXvO1-yZu5eCVj-63" style="edgeStyle=orthogonalEdgeStyle;rounded=0;orthogonalLoop=1;jettySize=auto;html=1;exitX=0.5;exitY=1;exitDx=0;exitDy=0;entryX=0.5;entryY=0;entryDx=0;entryDy=0;" edge="1" parent="WIyWlLk6GJQsqaUBKTNV-1" source="ic11wrHXvO1-yZu5eCVj-6" target="ic11wrHXvO1-yZu5eCVj-5">
          <mxGeometry relative="1" as="geometry" />
        </mxCell>
        <mxCell id="ic11wrHXvO1-yZu5eCVj-6" value="nginx" style="rounded=0;whiteSpace=wrap;html=1;" vertex="1" parent="WIyWlLk6GJQsqaUBKTNV-1">
          <mxGeometry x="330" y="160" width="120" height="40" as="geometry" />
        </mxCell>
        <mxCell id="ic11wrHXvO1-yZu5eCVj-11" value="mysql(blade)" style="rounded=0;whiteSpace=wrap;html=1;align=center;" vertex="1" parent="WIyWlLk6GJQsqaUBKTNV-1">
          <mxGeometry x="251" y="490" width="120" height="30" as="geometry" />
        </mxCell>
        <mxCell id="ic11wrHXvO1-yZu5eCVj-21" value="mysql(consulting_library)" style="rounded=0;whiteSpace=wrap;html=1;align=center;" vertex="1" parent="WIyWlLk6GJQsqaUBKTNV-1">
          <mxGeometry x="660" y="490" width="150" height="30" as="geometry" />
        </mxCell>
        <mxCell id="ic11wrHXvO1-yZu5eCVj-22" value="" style="endArrow=classic;html=1;entryX=0.442;entryY=0.067;entryDx=0;entryDy=0;entryPerimeter=0;exitX=0.5;exitY=1;exitDx=0;exitDy=0;" edge="1" parent="WIyWlLk6GJQsqaUBKTNV-1" source="ic11wrHXvO1-yZu5eCVj-3" target="ic11wrHXvO1-yZu5eCVj-21">
          <mxGeometry width="50" height="50" relative="1" as="geometry">
            <mxPoint x="390" y="400" as="sourcePoint" />
            <mxPoint x="440" y="350" as="targetPoint" />
          </mxGeometry>
        </mxCell>
        <mxCell id="ic11wrHXvO1-yZu5eCVj-25" value="服务中心-nacos" style="rounded=0;whiteSpace=wrap;html=1;align=center;" vertex="1" parent="WIyWlLk6GJQsqaUBKTNV-1">
          <mxGeometry x="610" y="250" width="180" height="40" as="geometry" />
        </mxCell>
        <mxCell id="ic11wrHXvO1-yZu5eCVj-27" value="redis" style="rounded=0;whiteSpace=wrap;html=1;align=center;" vertex="1" parent="WIyWlLk6GJQsqaUBKTNV-1">
          <mxGeometry x="490" y="490" width="110" height="30" as="geometry" />
        </mxCell>
        <mxCell id="ic11wrHXvO1-yZu5eCVj-28" value="" style="endArrow=classic;html=1;entryX=0.5;entryY=0;entryDx=0;entryDy=0;exitX=0.5;exitY=1;exitDx=0;exitDy=0;" edge="1" parent="WIyWlLk6GJQsqaUBKTNV-1" source="ic11wrHXvO1-yZu5eCVj-8" target="ic11wrHXvO1-yZu5eCVj-27">
          <mxGeometry width="50" height="50" relative="1" as="geometry">
            <mxPoint x="390" y="400" as="sourcePoint" />
            <mxPoint x="440" y="350" as="targetPoint" />
          </mxGeometry>
        </mxCell>
        <mxCell id="ic11wrHXvO1-yZu5eCVj-29" value="ElasticSearch" style="rounded=0;whiteSpace=wrap;html=1;align=center;" vertex="1" parent="WIyWlLk6GJQsqaUBKTNV-1">
          <mxGeometry x="885" y="490" width="110" height="30" as="geometry" />
        </mxCell>
        <mxCell id="ic11wrHXvO1-yZu5eCVj-30" value="" style="endArrow=classic;html=1;entryX=0.5;entryY=0;entryDx=0;entryDy=0;" edge="1" parent="WIyWlLk6GJQsqaUBKTNV-1" source="ic11wrHXvO1-yZu5eCVj-3" target="ic11wrHXvO1-yZu5eCVj-29">
          <mxGeometry width="50" height="50" relative="1" as="geometry">
            <mxPoint x="390" y="400" as="sourcePoint" />
            <mxPoint x="440" y="350" as="targetPoint" />
          </mxGeometry>
        </mxCell>
        <mxCell id="ic11wrHXvO1-yZu5eCVj-56" style="edgeStyle=orthogonalEdgeStyle;rounded=0;orthogonalLoop=1;jettySize=auto;html=1;exitX=0.5;exitY=0;exitDx=0;exitDy=0;" edge="1" parent="WIyWlLk6GJQsqaUBKTNV-1" source="ic11wrHXvO1-yZu5eCVj-35">
          <mxGeometry relative="1" as="geometry">
            <mxPoint x="660" y="590" as="targetPoint" />
          </mxGeometry>
        </mxCell>
        <mxCell id="ic11wrHXvO1-yZu5eCVj-35" value="kettle" style="rounded=0;whiteSpace=wrap;html=1;align=center;" vertex="1" parent="WIyWlLk6GJQsqaUBKTNV-1">
          <mxGeometry x="553.3" y="660" width="146.7" height="40" as="geometry" />
        </mxCell>
        <mxCell id="ic11wrHXvO1-yZu5eCVj-57" style="edgeStyle=orthogonalEdgeStyle;rounded=0;orthogonalLoop=1;jettySize=auto;html=1;exitX=0.5;exitY=0;exitDx=0;exitDy=0;" edge="1" parent="WIyWlLk6GJQsqaUBKTNV-1" source="ic11wrHXvO1-yZu5eCVj-38" target="ic11wrHXvO1-yZu5eCVj-21">
          <mxGeometry relative="1" as="geometry" />
        </mxCell>
        <mxCell id="ic11wrHXvO1-yZu5eCVj-38" value="数据同步" style="rhombus;whiteSpace=wrap;html=1;align=center;" vertex="1" parent="WIyWlLk6GJQsqaUBKTNV-1">
          <mxGeometry x="620" y="580" width="80" height="40" as="geometry" />
        </mxCell>
        <mxCell id="ic11wrHXvO1-yZu5eCVj-43" value="" style="group" vertex="1" connectable="0" parent="WIyWlLk6GJQsqaUBKTNV-1">
          <mxGeometry x="391.65" y="730" width="470" height="75" as="geometry" />
        </mxCell>
        <mxCell id="ic11wrHXvO1-yZu5eCVj-42" value="爬虫db" style="rounded=0;whiteSpace=wrap;html=1;align=left;" vertex="1" parent="ic11wrHXvO1-yZu5eCVj-43">
          <mxGeometry width="470" height="75" as="geometry" />
        </mxCell>
        <mxCell id="ic11wrHXvO1-yZu5eCVj-34" value="" style="group" vertex="1" connectable="0" parent="ic11wrHXvO1-yZu5eCVj-43">
          <mxGeometry x="106" y="22.5" width="327" height="30" as="geometry" />
        </mxCell>
        <mxCell id="ic11wrHXvO1-yZu5eCVj-31" value="爬虫db1" style="rounded=0;whiteSpace=wrap;html=1;align=center;" vertex="1" parent="ic11wrHXvO1-yZu5eCVj-34">
          <mxGeometry width="90" height="30" as="geometry" />
        </mxCell>
        <mxCell id="ic11wrHXvO1-yZu5eCVj-32" value="爬虫db2" style="rounded=0;whiteSpace=wrap;html=1;align=center;" vertex="1" parent="ic11wrHXvO1-yZu5eCVj-34">
          <mxGeometry x="117" width="90" height="30" as="geometry" />
        </mxCell>
        <mxCell id="ic11wrHXvO1-yZu5eCVj-33" value="爬虫db.." style="rounded=0;whiteSpace=wrap;html=1;align=center;" vertex="1" parent="ic11wrHXvO1-yZu5eCVj-34">
          <mxGeometry x="237" width="90" height="30" as="geometry" />
        </mxCell>
        <mxCell id="ic11wrHXvO1-yZu5eCVj-51" style="edgeStyle=orthogonalEdgeStyle;rounded=0;orthogonalLoop=1;jettySize=auto;html=1;exitX=0.25;exitY=0;exitDx=0;exitDy=0;entryX=0.5;entryY=1;entryDx=0;entryDy=0;" edge="1" parent="WIyWlLk6GJQsqaUBKTNV-1" source="ic11wrHXvO1-yZu5eCVj-45" target="ic11wrHXvO1-yZu5eCVj-47">
          <mxGeometry relative="1" as="geometry" />
        </mxCell>
        <mxCell id="ic11wrHXvO1-yZu5eCVj-53" style="edgeStyle=orthogonalEdgeStyle;rounded=0;orthogonalLoop=1;jettySize=auto;html=1;exitX=0.75;exitY=0;exitDx=0;exitDy=0;entryX=0.5;entryY=1;entryDx=0;entryDy=0;" edge="1" parent="WIyWlLk6GJQsqaUBKTNV-1" source="ic11wrHXvO1-yZu5eCVj-45" target="ic11wrHXvO1-yZu5eCVj-48">
          <mxGeometry relative="1" as="geometry">
            <Array as="points">
              <mxPoint x="940" y="650" />
            </Array>
          </mxGeometry>
        </mxCell>
        <mxCell id="ic11wrHXvO1-yZu5eCVj-45" value="job" style="rounded=0;whiteSpace=wrap;html=1;align=center;" vertex="1" parent="WIyWlLk6GJQsqaUBKTNV-1">
          <mxGeometry x="810" y="660" width="170" height="40" as="geometry" />
        </mxCell>
        <mxCell id="ic11wrHXvO1-yZu5eCVj-52" style="edgeStyle=orthogonalEdgeStyle;rounded=0;orthogonalLoop=1;jettySize=auto;html=1;exitX=0.5;exitY=0;exitDx=0;exitDy=0;entryX=0.6;entryY=1;entryDx=0;entryDy=0;entryPerimeter=0;" edge="1" parent="WIyWlLk6GJQsqaUBKTNV-1" source="ic11wrHXvO1-yZu5eCVj-47" target="ic11wrHXvO1-yZu5eCVj-21">
          <mxGeometry relative="1" as="geometry">
            <mxPoint x="731" y="520" as="targetPoint" />
          </mxGeometry>
        </mxCell>
        <mxCell id="ic11wrHXvO1-yZu5eCVj-47" value="数据处理" style="rhombus;whiteSpace=wrap;html=1;align=center;" vertex="1" parent="WIyWlLk6GJQsqaUBKTNV-1">
          <mxGeometry x="760" y="580" width="80" height="40" as="geometry" />
        </mxCell>
        <mxCell id="ic11wrHXvO1-yZu5eCVj-54" style="edgeStyle=orthogonalEdgeStyle;rounded=0;orthogonalLoop=1;jettySize=auto;html=1;exitX=0.5;exitY=0;exitDx=0;exitDy=0;entryX=0.5;entryY=1;entryDx=0;entryDy=0;" edge="1" parent="WIyWlLk6GJQsqaUBKTNV-1" source="ic11wrHXvO1-yZu5eCVj-48" target="ic11wrHXvO1-yZu5eCVj-29">
          <mxGeometry relative="1" as="geometry" />
        </mxCell>
        <mxCell id="ic11wrHXvO1-yZu5eCVj-48" value="数据同步" style="rhombus;whiteSpace=wrap;html=1;align=center;" vertex="1" parent="WIyWlLk6GJQsqaUBKTNV-1">
          <mxGeometry x="900" y="585" width="80" height="40" as="geometry" />
        </mxCell>
        <mxCell id="ic11wrHXvO1-yZu5eCVj-65" value="" style="group" vertex="1" connectable="0" parent="WIyWlLk6GJQsqaUBKTNV-1">
          <mxGeometry x="140" y="390" width="530" height="30" as="geometry" />
        </mxCell>
        <mxCell id="ic11wrHXvO1-yZu5eCVj-2" value="blade-system" style="rounded=1;whiteSpace=wrap;html=1;" vertex="1" parent="ic11wrHXvO1-yZu5eCVj-65">
          <mxGeometry x="110" width="80" height="30" as="geometry" />
        </mxCell>
        <mxCell id="ic11wrHXvO1-yZu5eCVj-9" value="blade-auth" style="rounded=1;whiteSpace=wrap;html=1;" vertex="1" parent="ic11wrHXvO1-yZu5eCVj-65">
          <mxGeometry x="220" width="80" height="30" as="geometry" />
        </mxCell>
        <mxCell id="ic11wrHXvO1-yZu5eCVj-10" value="blade-desk" style="rounded=1;whiteSpace=wrap;html=1;" vertex="1" parent="ic11wrHXvO1-yZu5eCVj-65">
          <mxGeometry x="330" width="80" height="30" as="geometry" />
        </mxCell>
        <mxCell id="ic11wrHXvO1-yZu5eCVj-17" value="......blade-other" style="rounded=1;whiteSpace=wrap;html=1;" vertex="1" parent="ic11wrHXvO1-yZu5eCVj-65">
          <mxGeometry x="440" width="90" height="30" as="geometry" />
        </mxCell>
        <mxCell id="ic11wrHXvO1-yZu5eCVj-0" value="blade-user" style="rounded=1;whiteSpace=wrap;html=1;" vertex="1" parent="ic11wrHXvO1-yZu5eCVj-65">
          <mxGeometry width="80" height="30" as="geometry" />
        </mxCell>
        <mxCell id="ic11wrHXvO1-yZu5eCVj-71" value="blade-auth" style="rounded=1;whiteSpace=wrap;html=1;" vertex="1" parent="ic11wrHXvO1-yZu5eCVj-65">
          <mxGeometry x="220" width="80" height="30" as="geometry" />
        </mxCell>
        <mxCell id="ic11wrHXvO1-yZu5eCVj-72" value="blade-desk" style="rounded=1;whiteSpace=wrap;html=1;" vertex="1" parent="ic11wrHXvO1-yZu5eCVj-65">
          <mxGeometry x="330" width="80" height="30" as="geometry" />
        </mxCell>
        <mxCell id="ic11wrHXvO1-yZu5eCVj-73" value="......blade-other" style="rounded=1;whiteSpace=wrap;html=1;" vertex="1" parent="ic11wrHXvO1-yZu5eCVj-65">
          <mxGeometry x="440" width="90" height="30" as="geometry" />
        </mxCell>
        <mxCell id="ic11wrHXvO1-yZu5eCVj-74" value="blade-system" style="rounded=1;whiteSpace=wrap;html=1;" vertex="1" parent="ic11wrHXvO1-yZu5eCVj-65">
          <mxGeometry x="110" width="80" height="30" as="geometry" />
        </mxCell>
        <mxCell id="ic11wrHXvO1-yZu5eCVj-80" style="edgeStyle=orthogonalEdgeStyle;rounded=0;orthogonalLoop=1;jettySize=auto;html=1;exitX=0.5;exitY=0;exitDx=0;exitDy=0;entryX=0.5;entryY=1;entryDx=0;entryDy=0;" edge="1" parent="WIyWlLk6GJQsqaUBKTNV-1" source="ic11wrHXvO1-yZu5eCVj-42" target="ic11wrHXvO1-yZu5eCVj-35">
          <mxGeometry relative="1" as="geometry" />
        </mxCell>
        <mxCell id="ic11wrHXvO1-yZu5eCVj-81" value="限流熔断-sentinel" style="rounded=0;whiteSpace=wrap;html=1;align=center;" vertex="1" parent="WIyWlLk6GJQsqaUBKTNV-1">
          <mxGeometry x="850" y="250" width="180" height="40" as="geometry" />
        </mxCell>
      </root>
    </mxGraphModel>
  </diagram>
</mxfile>
